<svg width="1440" height="721" viewBox="0 0 1440 721" fill="none" xmlns="http://www.w3.org/2000/svg">
<rect x="5.5" width="1" height="720" fill="#505050" fill-opacity="0.1"/>
<rect x="124.5" width="1" height="720" fill="#505050" fill-opacity="0.1"/>
<rect x="243.5" width="1" height="720" fill="#505050" fill-opacity="0.1"/>
<rect x="362.5" width="1" height="720" fill="#505050" fill-opacity="0.1"/>
<rect x="481.5" width="1" height="720" fill="#505050" fill-opacity="0.1"/>
<rect x="600.5" width="1" height="720" fill="#505050" fill-opacity="0.1"/>
<rect x="719.5" width="1" height="720" fill="#505050" fill-opacity="0.1"/>
<rect x="838.5" width="1" height="720" fill="#505050" fill-opacity="0.1"/>
<rect x="957.5" width="1" height="720" fill="#505050" fill-opacity="0.1"/>
<rect x="1076.5" width="1" height="720" fill="#505050" fill-opacity="0.1"/>
<rect x="1195.5" width="1" height="720" fill="#505050" fill-opacity="0.1"/>
<rect x="1314.5" width="1" height="720" fill="#505050" fill-opacity="0.1"/>
<rect x="1433.5" width="1" height="720" fill="#505050" fill-opacity="0.1"/>
<rect x="-0.5" y="721" width="1" height="1441" transform="rotate(-90 -0.5 721)" fill="#505050" fill-opacity="0.1"/>
<rect x="-0.5" y="601" width="1" height="1441" transform="rotate(-90 -0.5 601)" fill="#505050" fill-opacity="0.1"/>
<rect x="-0.5" y="481" width="1" height="1441" transform="rotate(-90 -0.5 481)" fill="#505050" fill-opacity="0.1"/>
<rect x="-0.5" y="361" width="1" height="1441" transform="rotate(-90 -0.5 361)" fill="#505050" fill-opacity="0.1"/>
<rect x="-0.5" y="241" width="1" height="1441" transform="rotate(-90 -0.5 241)" fill="#505050" fill-opacity="0.1"/>
<rect x="-0.5" y="121" width="1" height="1441" transform="rotate(-90 -0.5 121)" fill="#505050" fill-opacity="0.1"/>
<rect x="-0.5" y="1" width="1" height="1441" transform="rotate(-90 -0.5 1)" fill="#505050" fill-opacity="0.1"/>
</svg>
