<svg width="25" height="24" viewBox="0 0 25 24" fill="none" xmlns="http://www.w3.org/2000/svg">
<path d="M22.9999 5.25V11.25C22.9999 11.4489 22.9209 11.6397 22.7803 11.7803C22.6396 11.921 22.4488 12 22.2499 12C22.051 12 21.8603 11.921 21.7196 11.7803C21.5789 11.6397 21.4999 11.4489 21.4999 11.25V7.06031L13.7806 14.7806C13.7109 14.8504 13.6282 14.9057 13.5371 14.9434C13.4461 14.9812 13.3485 15.0006 13.2499 15.0006C13.1514 15.0006 13.0538 14.9812 12.9627 14.9434C12.8717 14.9057 12.789 14.8504 12.7193 14.7806L9.49993 11.5603L3.28055 17.7806C3.13982 17.9214 2.94895 18.0004 2.74993 18.0004C2.55091 18.0004 2.36003 17.9214 2.2193 17.7806C2.07857 17.6399 1.99951 17.449 1.99951 17.25C1.99951 17.051 2.07857 16.8601 2.2193 16.7194L8.9693 9.96937C9.03896 9.89964 9.12168 9.84432 9.21272 9.80658C9.30377 9.76884 9.40137 9.74941 9.49993 9.74941C9.59849 9.74941 9.69609 9.76884 9.78713 9.80658C9.87818 9.84432 9.9609 9.89964 10.0306 9.96937L13.2499 13.1897L20.4396 6H16.2499C16.051 6 15.8603 5.92098 15.7196 5.78033C15.5789 5.63968 15.4999 5.44891 15.4999 5.25C15.4999 5.05109 15.5789 4.86032 15.7196 4.71967C15.8603 4.57902 16.051 4.5 16.2499 4.5H22.2499C22.4488 4.5 22.6396 4.57902 22.7803 4.71967C22.9209 4.86032 22.9999 5.05109 22.9999 5.25Z" fill="white"/>
</svg>
