<svg width="25" height="25" viewBox="0 0 25 25" fill="none" xmlns="http://www.w3.org/2000/svg">
<g clip-path="url(#clip0_771_249)">
<path d="M22.0934 13.7244C21.8482 13.5354 21.567 13.3983 21.2671 13.3214C20.9671 13.2445 20.6547 13.2295 20.3488 13.2772C22.1094 11.4997 23 9.73253 23 8.00003C23 5.51846 21.0041 3.50003 18.5506 3.50003C17.8996 3.49594 17.2556 3.63439 16.6638 3.90567C16.0721 4.17695 15.5468 4.57448 15.125 5.07034C14.7032 4.57448 14.1779 4.17695 13.5862 3.90567C12.9944 3.63439 12.3504 3.49594 11.6994 3.50003C9.24594 3.50003 7.25 5.51846 7.25 8.00003C7.25 9.03128 7.55375 10.0335 8.19312 11.0938C7.66947 11.2264 7.19158 11.4986 6.81031 11.8813L4.68969 14H2C1.60218 14 1.22064 14.1581 0.93934 14.4394C0.658035 14.7207 0.5 15.1022 0.5 15.5L0.5 19.25C0.5 19.6479 0.658035 20.0294 0.93934 20.3107C1.22064 20.592 1.60218 20.75 2 20.75H11.75C11.8113 20.7501 11.8724 20.7425 11.9319 20.7275L17.9319 19.2275C17.9701 19.2184 18.0075 19.2059 18.0434 19.19L21.6875 17.6394L21.7288 17.6206C22.079 17.4456 22.3789 17.1844 22.6002 16.8614C22.8215 16.5385 22.957 16.1645 22.9939 15.7747C23.0307 15.385 22.9678 14.9922 22.8109 14.6335C22.654 14.2748 22.4084 13.9619 22.0972 13.7244H22.0934ZM11.6994 5.00003C12.2803 4.99153 12.8505 5.15647 13.3371 5.47378C13.8238 5.79108 14.2047 6.24632 14.4313 6.78128C14.4878 6.91883 14.5839 7.03649 14.7074 7.11929C14.8309 7.20209 14.9763 7.2463 15.125 7.2463C15.2737 7.2463 15.4191 7.20209 15.5426 7.11929C15.6661 7.03649 15.7622 6.91883 15.8187 6.78128C16.0453 6.24632 16.4262 5.79108 16.9129 5.47378C17.3995 5.15647 17.9697 4.99153 18.5506 5.00003C20.1491 5.00003 21.5 6.37346 21.5 8.00003C21.5 9.82909 20.0197 11.8982 17.2194 13.9907L16.1797 14.2297C16.2709 13.8442 16.2738 13.443 16.1879 13.0563C16.1021 12.6695 15.9298 12.3072 15.6841 11.9965C15.4383 11.6858 15.1254 11.4348 14.7688 11.2622C14.4122 11.0896 14.0212 11 13.625 11H9.93875C9.12969 9.90878 8.75 8.94878 8.75 8.00003C8.75 6.37346 10.1009 5.00003 11.6994 5.00003ZM2 15.5H4.25V19.25H2V15.5ZM21.0716 16.2697L17.5091 17.7866L11.6562 19.25H5.75V15.0603L7.87156 12.9397C8.01035 12.7998 8.17555 12.6889 8.35758 12.6134C8.53961 12.5379 8.73482 12.4994 8.93188 12.5H13.625C13.9234 12.5 14.2095 12.6186 14.4205 12.8295C14.6315 13.0405 14.75 13.3267 14.75 13.625C14.75 13.9234 14.6315 14.2095 14.4205 14.4205C14.2095 14.6315 13.9234 14.75 13.625 14.75H11C10.8011 14.75 10.6103 14.829 10.4697 14.9697C10.329 15.1103 10.25 15.3011 10.25 15.5C10.25 15.6989 10.329 15.8897 10.4697 16.0304C10.6103 16.171 10.8011 16.25 11 16.25H14C14.0565 16.2499 14.1127 16.2436 14.1678 16.2313L20.4491 14.7866L20.4781 14.7791C20.6699 14.7259 20.8745 14.7454 21.0527 14.834C21.2309 14.9226 21.37 15.074 21.4433 15.259C21.5167 15.444 21.5189 15.6495 21.4498 15.8361C21.3806 16.0227 21.2449 16.1772 21.0687 16.2697H21.0716Z" fill="white"/>
</g>
<defs>
<clipPath id="clip0_771_249">
<rect width="24" height="24" fill="white" transform="translate(0.5 0.5)"/>
</clipPath>
</defs>
</svg>
