<svg width="48" height="48" viewBox="0 0 48 48" fill="none" xmlns="http://www.w3.org/2000/svg">
<path d="M47.6812 20.2332L42.8962 10.6594C42.7199 10.307 42.4759 9.99283 42.1782 9.73475C41.8805 9.47667 41.5349 9.27976 41.161 9.15527C40.7872 9.03077 40.3925 8.98114 39.9995 9.0092C39.6065 9.03725 39.2229 9.14245 38.8705 9.31878L34.2074 11.6494L24.3843 9.05066C24.1322 8.98507 23.8676 8.98507 23.6155 9.05066L13.7924 11.6494L9.12929 9.31878C8.77695 9.14245 8.39332 9.03725 8.00031 9.0092C7.6073 8.98114 7.21262 9.03077 6.8388 9.15527C6.46497 9.27976 6.11934 9.47667 5.82162 9.73475C5.5239 9.99283 5.27994 10.307 5.10367 10.6594L0.318668 20.2313C0.142336 20.5836 0.0371373 20.9673 0.00908066 21.3603C-0.0189759 21.7533 0.0306587 22.148 0.15515 22.5218C0.279642 22.8956 0.476551 23.2412 0.734634 23.539C0.992717 23.8367 1.30692 24.0806 1.65929 24.2569L6.72179 26.79L17.1262 34.2207C17.2795 34.3297 17.4518 34.4092 17.6343 34.455L29.6343 37.455C29.8856 37.5181 30.1489 37.5149 30.3987 37.4459C30.6484 37.3769 30.876 37.2444 31.0593 37.0613L41.3849 26.7338L46.3387 24.2569C47.0498 23.9009 47.5905 23.2771 47.8419 22.5226C48.0933 21.768 48.0348 20.9446 47.6793 20.2332H47.6812ZM37.3893 26.49L30.9374 21.3225C30.6484 21.0911 30.2839 20.9747 29.9142 20.9958C29.5445 21.0169 29.1957 21.174 28.9349 21.4369C25.5955 24.8007 21.8737 24.375 19.4999 22.875L27.6074 15H33.5718L38.6737 25.2019L37.3893 26.49ZM7.78679 12L11.6249 13.9163L6.83054 23.4882L2.99992 21.5738L7.78679 12ZM29.5368 34.3369L18.6412 31.6144L9.41617 25.0257L14.6662 14.5257L23.9999 12.0525L25.8374 12.5382L17.3999 20.7282L17.3849 20.745C17.0673 21.0626 16.8251 21.4475 16.6761 21.8713C16.5271 22.295 16.4752 22.7468 16.5241 23.1933C16.5731 23.6398 16.7216 24.0696 16.9589 24.451C17.1962 24.8324 17.516 25.1557 17.8949 25.3969C21.7499 27.8588 26.4018 27.4594 30.0655 24.4594L35.2499 28.6238L29.5368 34.3369ZM41.1618 23.4863L36.3768 13.9238L40.213 12L44.9999 21.5738L41.1618 23.4863ZM24.7087 40.8619C24.6276 41.1861 24.4407 41.474 24.1774 41.6798C23.9142 41.8856 23.5897 41.9977 23.2555 41.9982C23.1323 41.998 23.0095 41.9829 22.8899 41.9532L15.0768 39.9994C14.8941 39.9543 14.7216 39.8748 14.5687 39.765L9.62804 36.2363C9.32426 35.9978 9.12419 35.6513 9.06949 35.2689C9.01479 34.8866 9.10968 34.4979 9.3344 34.1837C9.55913 33.8696 9.89636 33.6543 10.2759 33.5826C10.6554 33.5109 11.0479 33.5883 11.3718 33.7988L16.0799 37.1625L23.6249 39.045C24.0108 39.1416 24.3425 39.3874 24.5471 39.7285C24.7518 40.0695 24.8126 40.4779 24.7162 40.8638L24.7087 40.8619Z" fill="black"/>
</svg>
