<svg width="48" height="49" viewBox="0 0 48 49" fill="none" xmlns="http://www.w3.org/2000/svg">
<g filter="url(#filter0_dd_228_1081)">
<path d="M4 23.5C4 34.5457 12.9543 43.5 24 43.5C35.0457 43.5 44 34.5457 44 23.5C44 12.4543 35.0457 3.5 24 3.5C12.9543 3.5 4 12.4543 4 23.5Z" fill="#047857"/>
<path d="M28.4521 14.0024H19.4521C18.0602 14.0039 16.7257 14.5575 15.7415 15.5418C14.7572 16.526 14.2036 17.8605 14.2021 19.2524V28.2524C14.2036 29.6444 14.7572 30.9789 15.7415 31.9631C16.7257 32.9474 18.0602 33.501 19.4521 33.5024H28.4521C29.8441 33.501 31.1786 32.9474 32.1628 31.9631C33.1471 30.9789 33.7007 29.6444 33.7021 28.2524V19.2524C33.7007 17.8605 33.1471 16.526 32.1628 15.5418C31.1786 14.5575 29.8441 14.0039 28.4521 14.0024ZM23.9521 28.2524C23.0621 28.2524 22.1921 27.9885 21.4521 27.4941C20.7121 26.9996 20.1353 26.2968 19.7947 25.4745C19.4541 24.6522 19.365 23.7474 19.5386 22.8745C19.7122 22.0016 20.1408 21.1998 20.7702 20.5705C21.3995 19.9411 22.2013 19.5125 23.0742 19.3389C23.9472 19.1653 24.852 19.2544 25.6742 19.595C26.4965 19.9356 27.1993 20.5124 27.6938 21.2524C28.1882 21.9924 28.4521 22.8624 28.4521 23.7524C28.4509 24.9455 27.9764 26.0894 27.1328 26.9331C26.2891 27.7767 25.1452 28.2512 23.9521 28.2524ZM29.5771 19.2524C29.3546 19.2524 29.1371 19.1865 28.9521 19.0628C28.7671 18.9392 28.6229 18.7635 28.5378 18.558C28.4526 18.3524 28.4304 18.1262 28.4738 17.908C28.5172 17.6897 28.6243 17.4893 28.7817 17.3319C28.939 17.1746 29.1394 17.0675 29.3577 17.0241C29.5759 16.9806 29.8021 17.0029 30.0077 17.0881C30.2132 17.1732 30.3889 17.3174 30.5126 17.5024C30.6362 17.6874 30.7021 17.9049 30.7021 18.1274C30.7021 18.4258 30.5836 18.712 30.3726 18.9229C30.1617 19.1339 29.8755 19.2524 29.5771 19.2524ZM26.9521 23.7524C26.9521 24.3458 26.7762 24.9258 26.4466 25.4192C26.1169 25.9125 25.6484 26.297 25.1002 26.5241C24.552 26.7511 23.9488 26.8106 23.3669 26.6948C22.7849 26.579 22.2504 26.2933 21.8308 25.8738C21.4113 25.4542 21.1255 24.9197 21.0098 24.3377C20.894 23.7558 20.9534 23.1526 21.1805 22.6044C21.4076 22.0562 21.7921 21.5877 22.2854 21.258C22.7788 20.9284 23.3588 20.7524 23.9521 20.7524C24.7478 20.7524 25.5109 21.0685 26.0735 21.6311C26.6361 22.1937 26.9521 22.9568 26.9521 23.7524Z" fill="white"/>
</g>
<defs>
<filter id="filter0_dd_228_1081" x="0" y="0.5" width="48" height="48" filterUnits="userSpaceOnUse" color-interpolation-filters="sRGB">
<feFlood flood-opacity="0" result="BackgroundImageFix"/>
<feColorMatrix in="SourceAlpha" type="matrix" values="0 0 0 0 0 0 0 0 0 0 0 0 0 0 0 0 0 0 127 0" result="hardAlpha"/>
<feMorphology radius="1" operator="dilate" in="SourceAlpha" result="effect1_dropShadow_228_1081"/>
<feOffset dy="1"/>
<feGaussianBlur stdDeviation="1.5"/>
<feColorMatrix type="matrix" values="0 0 0 0 0 0 0 0 0 0 0 0 0 0 0 0 0 0 0.15 0"/>
<feBlend mode="normal" in2="BackgroundImageFix" result="effect1_dropShadow_228_1081"/>
<feColorMatrix in="SourceAlpha" type="matrix" values="0 0 0 0 0 0 0 0 0 0 0 0 0 0 0 0 0 0 127 0" result="hardAlpha"/>
<feOffset dy="1"/>
<feGaussianBlur stdDeviation="1"/>
<feColorMatrix type="matrix" values="0 0 0 0 0 0 0 0 0 0 0 0 0 0 0 0 0 0 0.3 0"/>
<feBlend mode="normal" in2="effect1_dropShadow_228_1081" result="effect2_dropShadow_228_1081"/>
<feBlend mode="normal" in="SourceGraphic" in2="effect2_dropShadow_228_1081" result="shape"/>
</filter>
</defs>
</svg>
