<svg width="48" height="49" viewBox="0 0 48 49" fill="none" xmlns="http://www.w3.org/2000/svg">
<g filter="url(#filter0_dd_228_1085)">
<path d="M4 23.5C4 34.5457 12.9543 43.5 24 43.5C35.0457 43.5 44 34.5457 44 23.5C44 12.4543 35.0457 3.5 24 3.5C12.9543 3.5 4 12.4543 4 23.5Z" fill="#047857"/>
<path d="M18.5 33.5H14.25V20.125H18.5V33.5ZM16.375 18.25C15 18.25 14 17.25 14 15.875C14 14.5 15.125 13.5 16.375 13.5C17.75 13.5 18.75 14.5 18.75 15.875C18.75 17.25 17.75 18.25 16.375 18.25ZM34 33.5H29.75V26.25C29.75 24.125 28.875 23.5 27.625 23.5C26.375 23.5 25.125 24.5 25.125 26.375V33.5H20.875V20.125H24.875V22C25.25 21.125 26.75 19.75 28.875 19.75C31.25 19.75 33.75 21.125 33.75 25.25V33.5H34Z" fill="white"/>
</g>
<defs>
<filter id="filter0_dd_228_1085" x="0" y="0.5" width="48" height="48" filterUnits="userSpaceOnUse" color-interpolation-filters="sRGB">
<feFlood flood-opacity="0" result="BackgroundImageFix"/>
<feColorMatrix in="SourceAlpha" type="matrix" values="0 0 0 0 0 0 0 0 0 0 0 0 0 0 0 0 0 0 127 0" result="hardAlpha"/>
<feMorphology radius="1" operator="dilate" in="SourceAlpha" result="effect1_dropShadow_228_1085"/>
<feOffset dy="1"/>
<feGaussianBlur stdDeviation="1.5"/>
<feColorMatrix type="matrix" values="0 0 0 0 0 0 0 0 0 0 0 0 0 0 0 0 0 0 0.15 0"/>
<feBlend mode="normal" in2="BackgroundImageFix" result="effect1_dropShadow_228_1085"/>
<feColorMatrix in="SourceAlpha" type="matrix" values="0 0 0 0 0 0 0 0 0 0 0 0 0 0 0 0 0 0 127 0" result="hardAlpha"/>
<feOffset dy="1"/>
<feGaussianBlur stdDeviation="1"/>
<feColorMatrix type="matrix" values="0 0 0 0 0 0 0 0 0 0 0 0 0 0 0 0 0 0 0.3 0"/>
<feBlend mode="normal" in2="effect1_dropShadow_228_1085" result="effect2_dropShadow_228_1085"/>
<feBlend mode="normal" in="SourceGraphic" in2="effect2_dropShadow_228_1085" result="shape"/>
</filter>
</defs>
</svg>
