<svg width="48" height="48" viewBox="0 0 48 48" fill="none" xmlns="http://www.w3.org/2000/svg">
<path d="M41.6006 15.5925C43.6821 19.9459 44.0772 24.916 42.7098 29.5436C41.3423 34.1712 38.3092 38.1282 34.1957 40.6509C30.0823 43.1737 25.1802 44.0833 20.4356 43.2043C15.6909 42.3253 11.44 39.7199 8.50333 35.891C5.56665 32.0621 4.15235 27.2812 4.5334 22.4708C4.91445 17.6605 7.06383 13.1618 10.5667 9.84302C14.0696 6.52423 18.6777 4.62061 23.5015 4.49956C28.3254 4.3785 33.0232 6.0486 36.6881 9.18751L40.9387 4.93501C41.2202 4.65355 41.6019 4.49543 42 4.49543C42.398 4.49543 42.7798 4.65355 43.0612 4.93501C43.3427 5.21647 43.5008 5.59822 43.5008 5.99626C43.5008 6.39431 43.3427 6.77605 43.0612 7.05751L25.0612 25.0575C24.7798 25.339 24.398 25.4971 24 25.4971C23.6019 25.4971 23.2202 25.339 22.9387 25.0575C22.6573 24.7761 22.4991 24.3943 22.4991 23.9963C22.4991 23.5982 22.6573 23.2165 22.9387 22.935L28.1362 17.7375C26.7276 16.8059 25.0459 16.377 23.3632 16.5202C21.6805 16.6633 20.0953 17.3702 18.8644 18.5264C17.6334 19.6825 16.8287 21.2203 16.5804 22.8907C16.3322 24.5612 16.655 26.2665 17.4966 27.7306C18.3381 29.1948 19.6492 30.3321 21.2176 30.9583C22.7859 31.5846 24.5197 31.6633 26.1384 31.1816C27.757 30.6998 29.1656 29.6859 30.1363 28.304C31.107 26.922 31.5828 25.2529 31.4868 23.5669C31.4758 23.3699 31.5036 23.1727 31.5687 22.9864C31.6339 22.8002 31.7351 22.6286 31.8665 22.4815C31.998 22.3344 32.1571 22.2146 32.3349 22.129C32.5126 22.0434 32.7055 21.9936 32.9025 21.9825C33.3003 21.9601 33.6907 22.0967 33.9879 22.3622C34.135 22.4936 34.2548 22.6528 34.3404 22.8305C34.426 23.0083 34.4758 23.2012 34.4868 23.3981C34.6236 25.7846 33.942 28.1463 32.5546 30.0929C31.1673 32.0395 29.1573 33.4544 26.8568 34.1039C24.5564 34.7533 22.1032 34.5984 19.9027 33.6647C17.7022 32.731 15.8862 31.0744 14.7548 28.9688C13.6233 26.8632 13.2442 24.4345 13.6801 22.0842C14.116 19.7339 15.3407 17.6027 17.152 16.0428C18.9632 14.4828 21.2525 13.5876 23.6414 13.5051C26.0304 13.4225 28.376 14.1576 30.2906 15.5888L34.5562 11.3231C31.4302 8.72776 27.4555 7.37882 23.3956 7.53541C19.3356 7.69199 15.4766 9.34307 12.5598 12.1715C9.64302 15 7.87405 18.8063 7.59268 22.8596C7.31131 26.9128 8.53738 30.9271 11.0354 34.1314C13.5334 37.3358 17.1272 39.5042 21.1266 40.2202C25.126 40.9363 29.249 40.1495 32.7036 38.0109C36.1582 35.8724 38.7009 32.5328 39.8433 28.6338C40.9858 24.7347 40.6474 20.551 38.8931 16.8863C38.7215 16.5272 38.6996 16.1147 38.8322 15.7396C38.9648 15.3644 39.2409 15.0572 39.6 14.8856C39.959 14.7141 40.3715 14.6922 40.7467 14.8247C41.1219 14.9573 41.429 15.2335 41.6006 15.5925Z" fill="black"/>
</svg>
