<svg width="48" height="49" viewBox="0 0 48 49" fill="none" xmlns="http://www.w3.org/2000/svg">
<g filter="url(#filter0_dd_228_1078)">
<path d="M4 23.5C4 34.5457 12.9543 43.5 24 43.5C35.0457 43.5 44 34.5457 44 23.5C44 12.4543 35.0457 3.5 24 3.5C12.9543 3.5 4 12.4543 4 23.5Z" fill="#047857"/>
<path d="M34 17.25C33.25 17.625 32.5 17.75 31.625 17.875C32.5 17.375 33.125 16.625 33.375 15.625C32.625 16.125 31.75 16.375 30.75 16.625C30 15.875 28.875 15.375 27.75 15.375C25.125 15.375 23.125 17.875 23.75 20.375C20.375 20.25 17.375 18.625 15.25 16.125C14.125 18 14.75 20.375 16.5 21.625C15.875 21.625 15.25 21.375 14.625 21.125C14.625 23 16 24.75 17.875 25.25C17.25 25.375 16.625 25.5 16 25.375C16.5 27 18 28.25 19.875 28.25C18.375 29.375 16.125 30 14 29.75C15.875 30.875 18 31.625 20.25 31.625C27.875 31.625 32.125 25.25 31.875 19.375C32.75 18.875 33.5 18.125 34 17.25Z" fill="white"/>
</g>
<defs>
<filter id="filter0_dd_228_1078" x="0" y="0.5" width="48" height="48" filterUnits="userSpaceOnUse" color-interpolation-filters="sRGB">
<feFlood flood-opacity="0" result="BackgroundImageFix"/>
<feColorMatrix in="SourceAlpha" type="matrix" values="0 0 0 0 0 0 0 0 0 0 0 0 0 0 0 0 0 0 127 0" result="hardAlpha"/>
<feMorphology radius="1" operator="dilate" in="SourceAlpha" result="effect1_dropShadow_228_1078"/>
<feOffset dy="1"/>
<feGaussianBlur stdDeviation="1.5"/>
<feColorMatrix type="matrix" values="0 0 0 0 0 0 0 0 0 0 0 0 0 0 0 0 0 0 0.15 0"/>
<feBlend mode="normal" in2="BackgroundImageFix" result="effect1_dropShadow_228_1078"/>
<feColorMatrix in="SourceAlpha" type="matrix" values="0 0 0 0 0 0 0 0 0 0 0 0 0 0 0 0 0 0 127 0" result="hardAlpha"/>
<feOffset dy="1"/>
<feGaussianBlur stdDeviation="1"/>
<feColorMatrix type="matrix" values="0 0 0 0 0 0 0 0 0 0 0 0 0 0 0 0 0 0 0.3 0"/>
<feBlend mode="normal" in2="effect1_dropShadow_228_1078" result="effect2_dropShadow_228_1078"/>
<feBlend mode="normal" in="SourceGraphic" in2="effect2_dropShadow_228_1078" result="shape"/>
</filter>
</defs>
</svg>
