<svg width="48" height="48" viewBox="0 0 48 48" fill="none" xmlns="http://www.w3.org/2000/svg">
<path d="M5.1 23.7C5.25759 23.8182 5.43691 23.9042 5.62773 23.9531C5.81855 24.002 6.01713 24.0128 6.21213 23.985C6.40714 23.9571 6.59474 23.8911 6.76424 23.7907C6.93374 23.6904 7.08181 23.5576 7.2 23.4C8.10818 22.1891 9.28583 21.2063 10.6397 20.5294C11.9935 19.8524 13.4864 19.5 15 19.5C16.5136 19.5 18.0065 19.8524 19.3603 20.5294C20.7142 21.2063 21.8918 22.1891 22.8 23.4C23.039 23.718 23.3945 23.928 23.7883 23.9839C24.1821 24.0399 24.582 23.9371 24.9 23.6982C25.0134 23.6138 25.1138 23.5134 25.1981 23.4C26.1063 22.1891 27.284 21.2063 28.6378 20.5294C29.9916 19.8524 31.4845 19.5 32.9981 19.5C34.5118 19.5 36.0046 19.8524 37.3585 20.5294C38.7123 21.2063 39.8899 22.1891 40.7981 23.4C41.0371 23.7183 41.3927 23.9286 41.7867 23.9847C42.1807 24.0408 42.5808 23.938 42.8991 23.6991C43.2173 23.4602 43.4276 23.1046 43.4837 22.7106C43.5398 22.3166 43.4371 21.9164 43.1981 21.5982C41.8704 19.8182 40.0998 18.4167 38.0625 17.5332C39.1794 16.5134 39.9619 15.1798 40.3074 13.7074C40.6528 12.235 40.545 10.6925 39.9981 9.28245C39.4513 7.87238 38.4909 6.66059 37.243 5.80611C35.9951 4.95163 34.518 4.49438 33.0056 4.49438C31.4932 4.49438 30.0162 4.95163 28.7683 5.80611C27.5204 6.66059 26.56 7.87238 26.0131 9.28245C25.4662 10.6925 25.3584 12.235 25.7039 13.7074C26.0493 15.1798 26.8318 16.5134 27.9487 17.5332C26.4777 18.1693 25.1414 19.0799 24.0112 20.2163C22.8811 19.0799 21.5448 18.1693 20.0737 17.5332C21.1907 16.5134 21.9732 15.1798 22.3186 13.7074C22.6641 12.235 22.5563 10.6925 22.0094 9.28245C21.4625 7.87238 20.5021 6.66059 19.2542 5.80611C18.0063 4.95163 16.5293 4.49438 15.0169 4.49438C13.5045 4.49438 12.0274 4.95163 10.7795 5.80611C9.53162 6.66059 8.57122 7.87238 8.02435 9.28245C7.47748 10.6925 7.36969 12.235 7.71512 13.7074C8.06056 15.1798 8.84309 16.5134 9.96 17.5332C7.91372 18.4138 6.13444 19.8162 4.8 21.6C4.68181 21.7576 4.59582 21.9369 4.54693 22.1278C4.49804 22.3186 4.48722 22.5172 4.51508 22.7122C4.54293 22.9072 4.60893 23.0948 4.70929 23.2643C4.80965 23.4338 4.94241 23.5818 5.1 23.7ZM33 7.50003C33.89 7.50003 34.76 7.76395 35.5001 8.25842C36.2401 8.75289 36.8169 9.45569 37.1575 10.278C37.4981 11.1002 37.5872 12.005 37.4135 12.8779C37.2399 13.7509 36.8113 14.5527 36.182 15.182C35.5526 15.8114 34.7508 16.2399 33.8779 16.4136C33.005 16.5872 32.1002 16.4981 31.2779 16.1575C30.4557 15.8169 29.7529 15.2401 29.2584 14.5001C28.7639 13.7601 28.5 12.89 28.5 12C28.5 10.8066 28.9741 9.66197 29.818 8.81805C30.6619 7.97414 31.8065 7.50003 33 7.50003ZM15 7.50003C15.89 7.50003 16.76 7.76395 17.5001 8.25842C18.2401 8.75289 18.8169 9.45569 19.1575 10.278C19.4981 11.1002 19.5872 12.005 19.4135 12.8779C19.2399 13.7509 18.8113 14.5527 18.182 15.182C17.5526 15.8114 16.7508 16.2399 15.8779 16.4136C15.005 16.5872 14.1002 16.4981 13.2779 16.1575C12.4557 15.8169 11.7529 15.2401 11.2584 14.5001C10.7639 13.7601 10.5 12.89 10.5 12C10.5 10.8066 10.9741 9.66197 11.818 8.81805C12.6619 7.97414 13.8065 7.50003 15 7.50003ZM38.0625 37.0332C39.1794 36.0134 39.9619 34.6798 40.3074 33.2074C40.6528 31.735 40.545 30.1925 39.9981 28.7824C39.4513 27.3724 38.4909 26.1606 37.243 25.3061C35.9951 24.4516 34.518 23.9944 33.0056 23.9944C31.4932 23.9944 30.0162 24.4516 28.7683 25.3061C27.5204 26.1606 26.56 27.3724 26.0131 28.7824C25.4662 30.1925 25.3584 31.735 25.7039 33.2074C26.0493 34.6798 26.8318 36.0134 27.9487 37.0332C26.4777 37.6693 25.1414 38.5799 24.0112 39.7163C22.8811 38.5799 21.5448 37.6693 20.0737 37.0332C21.1907 36.0134 21.9732 34.6798 22.3186 33.2074C22.6641 31.735 22.5563 30.1925 22.0094 28.7824C21.4625 27.3724 20.5021 26.1606 19.2542 25.3061C18.0063 24.4516 16.5293 23.9944 15.0169 23.9944C13.5045 23.9944 12.0274 24.4516 10.7795 25.3061C9.53162 26.1606 8.57122 27.3724 8.02435 28.7824C7.47748 30.1925 7.36969 31.735 7.71512 33.2074C8.06056 34.6798 8.84309 36.0134 9.96 37.0332C7.91372 37.9138 6.13444 39.3162 4.8 41.1C4.68181 41.2576 4.59582 41.4369 4.54693 41.6278C4.49804 41.8186 4.48722 42.0172 4.51508 42.2122C4.54293 42.4072 4.60893 42.5948 4.70929 42.7643C4.80965 42.9338 4.94241 43.0818 5.1 43.2C5.25759 43.3182 5.43691 43.4042 5.62773 43.4531C5.81855 43.502 6.01713 43.5128 6.21213 43.485C6.40714 43.4571 6.59474 43.3911 6.76424 43.2907C6.93374 43.1904 7.08181 43.0576 7.2 42.9C8.10818 41.6891 9.28583 40.7063 10.6397 40.0294C11.9935 39.3524 13.4864 39 15 39C16.5136 39 18.0065 39.3524 19.3603 40.0294C20.7142 40.7063 21.8918 41.6891 22.8 42.9C23.039 43.218 23.3945 43.428 23.7883 43.4839C24.1821 43.5398 24.582 43.4371 24.9 43.1982C25.0134 43.1138 25.1138 43.0134 25.1981 42.9C26.1063 41.6891 27.284 40.7063 28.6378 40.0294C29.9916 39.3524 31.4845 39 32.9981 39C34.5118 39 36.0046 39.3524 37.3585 40.0294C38.7123 40.7063 39.8899 41.6891 40.7981 42.9C41.0371 43.2183 41.3927 43.4286 41.7867 43.4847C42.1807 43.5408 42.5808 43.438 42.8991 43.1991C43.2173 42.9602 43.4276 42.6046 43.4837 42.2106C43.5398 41.8166 43.4371 41.4164 43.1981 41.0982C41.8704 39.3182 40.0998 37.9167 38.0625 37.0332ZM15 27C15.89 27 16.76 27.264 17.5001 27.7584C18.2401 28.2529 18.8169 28.9557 19.1575 29.778C19.4981 30.6002 19.5872 31.505 19.4135 32.3779C19.2399 33.2509 18.8113 34.0527 18.182 34.682C17.5526 35.3113 16.7508 35.7399 15.8779 35.9136C15.005 36.0872 14.1002 35.9981 13.2779 35.6575C12.4557 35.3169 11.7529 34.7401 11.2584 34.0001C10.7639 33.2601 10.5 32.39 10.5 31.5C10.5 30.3066 10.9741 29.162 11.818 28.3181C12.6619 27.4741 13.8065 27 15 27ZM33 27C33.89 27 34.76 27.264 35.5001 27.7584C36.2401 28.2529 36.8169 28.9557 37.1575 29.778C37.4981 30.6002 37.5872 31.505 37.4135 32.3779C37.2399 33.2509 36.8113 34.0527 36.182 34.682C35.5526 35.3113 34.7508 35.7399 33.8779 35.9136C33.005 36.0872 32.1002 35.9981 31.2779 35.6575C30.4557 35.3169 29.7529 34.7401 29.2584 34.0001C28.7639 33.2601 28.5 32.39 28.5 31.5C28.5 30.3066 28.9741 29.162 29.818 28.3181C30.6619 27.4741 31.8065 27 33 27Z" fill="black"/>
</svg>
